<svg width="35" height="35" viewBox="0 0 35 35" fill="none" xmlns="http://www.w3.org/2000/svg">
<circle cx="17.5" cy="17.5" r="17.5" fill="white"/>
<g clip-path="url(#clip0_186_10)">
<path d="M27.0369 19.0738H26.3469C26.3063 18.7897 26.3063 18.465 26.2657 18.1402C26.2251 17.7749 26.0221 17.4096 25.738 17.2066C24.4797 16.3543 21.1513 15.7048 17.2546 15.7048H17.214H17.1734C13.2768 15.7048 9.94834 16.3543 8.69004 17.2066C8.36531 17.4096 8.20295 17.7749 8.16236 18.1402C8.04059 18.7491 8 19.3173 8 19.7638C8 23.7417 10.0295 27.2325 12.952 28.9779C13.7638 29.4649 14.6568 29.6679 15.5904 29.6679H17.1328H17.214H18.7565C19.69 29.6679 20.583 29.4649 21.3948 28.9779C22.4096 28.369 23.3432 27.5572 24.0738 26.583H26.2657C28.2952 26.583 29.9594 24.9188 29.9594 22.8893V22.0369C30 20.3727 28.6605 19.0738 27.0369 19.0738ZM28.5387 22.8487C28.5387 24.0664 27.524 25.0812 26.3063 25.0812H25.0886C25.8192 23.7417 26.2657 22.1993 26.3875 20.5351H27.0775C27.8893 20.5351 28.5387 21.1845 28.5387 21.9963V22.8487Z" fill="#4E2A21"/>
<path d="M17.2546 19.5609C21.3121 19.5609 24.6014 18.8885 24.6014 18.059C24.6014 17.2296 21.3121 16.5572 17.2546 16.5572C13.197 16.5572 9.90771 17.2296 9.90771 18.059C9.90771 18.8885 13.197 19.5609 17.2546 19.5609Z" fill="white"/>
<path d="M14.5756 3C16.1181 3.24354 17.4575 4.54244 18.0258 6.12546C18.3099 6.93727 18.4317 7.78967 18.3099 8.68266C18.1882 9.57565 17.8634 10.428 17.4575 11.1181C16.6457 12.4982 15.7933 13.3911 15.3468 14.3653C14.9003 15.3801 14.738 16.6384 15.0221 18.1402C13.7232 17.3284 12.9926 15.583 13.155 13.8376C13.2361 12.9446 13.6015 12.1328 13.9262 11.4834C14.2915 10.7934 14.6568 10.2251 14.9815 9.69742C15.3063 9.16974 15.5092 8.68266 15.6716 8.23616C15.8339 7.74908 15.8745 7.18081 15.8339 6.61255C15.8339 5.43542 15.4686 4.21771 14.5756 3Z" fill="#4E2A21"/>
<path d="M18.4723 3.12177C19.4871 3.32472 20.4206 3.89298 21.1513 4.74538C21.8413 5.59778 22.2472 6.73431 22.2472 7.87084C22.2472 9.00737 21.8413 10.1033 21.1918 10.9963C20.8671 11.4428 20.4612 11.8081 20.0147 12.0922C19.5276 12.3764 19 12.5793 18.4723 12.5387C19.1623 11.7675 19.4465 10.9557 19.7306 10.1845C19.9741 9.37269 20.0959 8.60147 20.1365 7.87084C20.1365 7.09962 20.0147 6.369 19.7306 5.59778C19.4871 4.78597 19 4.05534 18.4723 3.12177Z" fill="#4E2A21"/>
<path d="M22.9372 20.5757C22.5719 20.6568 22.166 20.738 21.6789 20.8192C21.3948 20.8598 21.1512 21.1439 21.1512 21.4281V25.8524C21.1512 26.3801 21.8007 26.6642 22.2066 26.2989C23.1402 25.4465 24.0332 24.107 24.3985 21.9151C24.5202 21.1033 23.749 20.3727 22.9372 20.5757Z" fill="#4E2A21"/>
</g>
<defs>
<clipPath id="clip0_186_10">
<rect width="22" height="26.6273" fill="white" transform="translate(8 3)"/>
</clipPath>
</defs>
</svg>
